<svg id="background" xmlns="http://www.w3.org/2000/svg" xmlns:xlink="http://www.w3.org/1999/xlink" viewBox="0 0 1920 1080">
  <defs>
    <style>
      .cls-1, .cls-5 {
        fill: none;
      }

      .cls-2 {
        clip-path: url(#clip-path);
      }

      .cls-3 {
        fill: #fff;
      }

      .cls-4 {
        fill: #004c54;
      }

      .cls-5 {
        stroke: #fff;
        stroke-width: 0.23px;
      }

      .cls-6, .cls-8 {
        fill: #a5acaf;
      }

      .cls-7 {
        stroke: #000;
        stroke-miterlimit: 10;
        opacity: 0.9;
      }

      .cls-8 {
        font-size: 47px;
        font-family: MyriadPro-Regular, Myriad Pro;
      }

      .cls-9 {
        letter-spacing: 0em;
      }

      .cls-10 {
        letter-spacing: 0em;
      }

      .cls-11 {
        letter-spacing: 0.01em;
      }
    </style>
    <clipPath id="clip-path">
      <rect class="cls-1" x="249.07" y="19.27" width="1422.72" height="994.71"/>
    </clipPath>
  </defs>
  <title>background</title>
  <g id="overlay">
    <g id="philadelphia-eagles-logo-01">
      <g class="cls-2">
        <g id="Group_1" data-name="Group 1">
          <path id="Path_1" data-name="Path 1" class="cls-3" d="M1078.7,96.49,1009,169.22c113.67-47.13,361.65-128.33,361.65-128.33l-79.7,77.71c216.9-64.16,381.59-94.55,381.59-94.55a1735,1735,0,0,1-119.56,222.38c13.85-1.5,103.92-12.06,103.92-12.06s-81.2,134.4-174.76,231.25l52.41,13a1386,1386,0,0,1-189.3,213.81c-155,138.09-234.73,116.87-234.73,116.87-115.18,83.39-207.33,41.14-207.33,41.14S943,749.86,901.85,739.2c-37.17-10-93.56,19.43-100.63,31.08A472.85,472.85,0,0,1,731.48,899a398.55,398.55,0,0,1-128.91,105.42,172.74,172.74,0,0,1-53.7-123.14,201.43,201.43,0,0,1-96.35,51.6c-41.84,8.87-98.83,1.6-157.21-47.22C256.15,853,248.58,742.89,248.58,742.89a508.82,508.82,0,0,1,108-132,94.29,94.29,0,0,1-28.4-41c189.3-82.49,189.3-161.1,338.75-256.85,148.05-94.25,241-137.69,410.78-216.5"/>
        </g>
      </g>
      <path id="Path_2" data-name="Path 2" class="cls-4" d="M986.64,163.34l-59.78,62.17c117.27-51.91,364.75-136.1,364.75-136.1l-71.84,69.74c253.86-78.61,414.86-105.21,414.86-105.21A1502.53,1502.53,0,0,1,1512,270.74c33.87-3.18,104.61-11.45,104.61-11.45a1189.92,1189.92,0,0,1-175.15,219.18c11.56,1.7,59,12.46,59,12.46a1098.2,1098.2,0,0,1-172.56,189.3C1188.39,802.57,1126,788.13,1126,788.13a44,44,0,0,0,1.2-12.26,42.21,42.21,0,0,0-1-8.07C1018.62,869.13,929,834.85,929,834.85s39.85-96.34-21.22-115.77c-47.32-15-119.56,23.62-125.63,44.34a453.65,453.65,0,0,1-65.36,122.23,377.65,377.65,0,0,1-108.9,92.66s-52-39.85-34-157.12c3.88-25.5-1.1-35.47-3.89-39.85-8.57-13.05-75.12,1.2-91.36,38.26-11.46,26.3,54.7,48.42,54.7,48.42a166.14,166.14,0,0,1-83.89,44.53C416,919.43,364,917.24,310,870,277.67,842.11,271,747.57,271,747.57a515.2,515.2,0,0,1,117-135.9,96.22,96.22,0,0,1-29.89-33.78c156.42-67.35,177.94-162.6,354.49-269A2449.12,2449.12,0,0,1,986.93,163.44"/>
      <path id="Path_3" data-name="Path 3" d="M1402.3,492a309.83,309.83,0,0,1,46.33,12c-53.8,87.08-214.4,258.24-304.18,265.32a65.58,65.58,0,0,0-13.85-36.57c-33.67,61.57-136.49,99.63-179.33,89.67,51.91-190-168.18-117.66-185-65.46a380,380,0,0,1-155,199.26s-35.47-40.45-19.93-131.61C602.56,757.33,560,759.42,560,759.42c-17-.8-81.3,7-101.62,51.91-16.34,36.17,41,61.57,41,61.57S416.55,939,320.91,857.06c-23.52-19.93-32.28-104.91-32.28-104.91A499.77,499.77,0,0,1,420.34,609a69.67,69.67,0,0,1-35-24C513.89,526.09,564.7,428.06,673.7,355.33A1476.78,1476.78,0,0,1,886.51,235.77l-34.87,43.84s29.19-12.46,41.94-18.73c114.78-56.3,309.36-117.66,309.36-117.66L1142.26,202a2200,2200,0,0,1,227.26-61.28L1578,96.59a852,852,0,0,1-103.42,196.27c42.44-3,88.27-5.48,88.27-5.48s-49.22,99-160.5,205.24"/>
      <path id="Path_4" data-name="Path 4" d="M879.74,359.91l-4.29,1.49,3.79-1.3h.5"/>
      <path id="Path_6" data-name="Path 6" class="cls-3" d="M1026.19,589.06s-61.47-29.89-158.31,1.79a464.53,464.53,0,0,1,302.88-45.53,422,422,0,0,0-267,0,524.42,524.42,0,0,0-54.6,24.21s8.56-6.28,24.61-15.84a742.82,742.82,0,0,1,147.85-82.89c37.36-15.35,111.78-35.27,142.07-37a413.83,413.83,0,0,0-148.84,4.69s112.48-43.84,221.57-46.33c36.57-.8,120.16,3.69,120.16,3.69C1235.91,360,1111,352.93,1025.5,366,977,378,938.72,390,938.72,390s6.67-3.39,19.92-8.87c30.79-18.23,157.12-86.08,391.95-122.75a630.62,630.62,0,0,0-66.75-3.58,925.87,925.87,0,0,0-111.39,12.65c53.5-24.41,154.23-48,279-59.78,0,0-190.39-22.61-420.83,49.82l-3.09,1.4s24.31-17.64,51.7-35.87c19.93-13.45,49.82-34.37,49.82-34.37A1578.66,1578.66,0,0,0,850.74,293c-45.13,21.42-68.94,34.17-68.94,34.17,6.87-8,39.05-36.17,46.73-46.13-118.76,58.18-162.1,96.74-232.74,171.56C532.82,519.32,536,531,440.07,582.68a162.4,162.4,0,0,0,141.77-17.53,202.71,202.71,0,0,0,35-31.09c25.2-29.29,16.93-59.28,50.41-80.9A119.52,119.52,0,0,0,653.87,493a299.13,299.13,0,0,1,83.29-72.43c89.67-53.7,149.45-63,149.45-63l-6.77,2.49C756.59,411.42,736.67,478.27,735.57,485.24c-1.3,15.15,44.44-18.63,81.9-23.21a159.42,159.42,0,0,0-89.67,86.08c-6.87,16.34-9.06,35.07-28.49,49.82a85.61,85.61,0,0,1-22.42,14c-25.9,11.66-43.74,5.78-49.81,1.8a22.42,22.42,0,0,1-5.88-6.58,58.29,58.29,0,0,0,45.13-9.36,65.91,65.91,0,0,0,24.61-26.5h0a28.59,28.59,0,0,0,0-28.1,24.78,24.78,0,0,0-19-11.46,104.54,104.54,0,0,1,18.33-28.49,196.11,196.11,0,0,0-36.37,36.16A26.44,26.44,0,0,1,673.8,551.5c8.27,13.75.6,33.57-17.24,44.13s-38.95,8.07-47.22-5.68a31.36,31.36,0,0,1-2.39-5.48l-2.79,1.6c-5.58,2.89-16.74,7.57-16.74,7.57a46.79,46.79,0,0,0,16.84,1c1.49,19.43,13.65,50.81,82.2,33.08-19.93,19.33-66.76,18-95.35,3.09,3.89,2.88,8.37,6,13.75,9.26,86,53.5,185.11,3.19,209.22-10.76a189.65,189.65,0,0,1,17.84-10,205.81,205.81,0,0,0-42,56.48c29.89-38.55,117.77-100.42,235.23-86.07"/>
      <path id="Path_7" data-name="Path 7" class="cls-5" d="M1026.19,589.06s-61.47-29.89-158.31,1.79a464.53,464.53,0,0,1,302.88-45.53,422,422,0,0,0-267,0,524.42,524.42,0,0,0-54.6,24.21s8.56-6.28,24.61-15.84a742.82,742.82,0,0,1,147.85-82.89c37.36-15.35,111.78-35.27,142.07-37a413.83,413.83,0,0,0-148.84,4.69s112.48-43.84,221.57-46.33c36.57-.8,120.16,3.69,120.16,3.69C1235.91,360,1111,352.93,1025.5,366,977,378,938.72,390,938.72,390s6.67-3.39,19.92-8.87c30.79-18.23,157.12-86.08,391.95-122.75a630.62,630.62,0,0,0-66.75-3.58,925.87,925.87,0,0,0-111.39,12.65c53.5-24.41,154.23-48,279-59.78,0,0-190.39-22.61-420.83,49.82l-3.09,1.4s24.31-17.64,51.7-35.87c19.93-13.45,49.82-34.37,49.82-34.37A1578.66,1578.66,0,0,0,850.74,293c-45.13,21.42-68.94,34.17-68.94,34.17,6.87-8,39.05-36.17,46.73-46.13-118.76,58.18-162.1,96.74-232.74,171.56C532.82,519.32,536,531,440.07,582.68a162.4,162.4,0,0,0,141.77-17.53,202.71,202.71,0,0,0,35-31.09c25.2-29.29,16.93-59.28,50.41-80.9A119.52,119.52,0,0,0,653.87,493a299.13,299.13,0,0,1,83.29-72.43c89.67-53.7,149.45-63,149.45-63l-6.77,2.49C756.59,411.42,736.67,478.27,735.57,485.24c-1.3,15.15,44.44-18.63,81.9-23.21a159.42,159.42,0,0,0-89.67,86.08c-6.87,16.34-9.06,35.07-28.49,49.82a85.61,85.61,0,0,1-22.42,14c-25.9,11.66-43.74,5.78-49.81,1.8a22.42,22.42,0,0,1-5.88-6.58,58.29,58.29,0,0,0,45.13-9.36,65.91,65.91,0,0,0,24.61-26.5h0a28.59,28.59,0,0,0,0-28.1,24.78,24.78,0,0,0-19-11.46,104.54,104.54,0,0,1,18.33-28.49,196.11,196.11,0,0,0-36.37,36.16A26.44,26.44,0,0,1,673.8,551.5c8.27,13.75.6,33.57-17.24,44.13s-38.95,8.07-47.22-5.68a31.36,31.36,0,0,1-2.39-5.48l-2.79,1.6c-5.58,2.89-16.74,7.57-16.74,7.57a46.79,46.79,0,0,0,16.84,1c1.49,19.43,13.65,50.81,82.2,33.08-19.93,19.33-66.76,18-95.35,3a152.74,152.74,0,0,0,13.75,9.37c86,53.5,185.11,3.09,209.22-10.76a189.65,189.65,0,0,1,17.84-10,205.81,205.81,0,0,0-42,56.48c29.89-38.55,117.77-100.42,235.23-86.07"/>
      <path id="Path_8" data-name="Path 8" class="cls-6" d="M711.56,504.57c3.29,12.75,25.41,0,25.41,0a179.37,179.37,0,0,0-41.85,52.51,31.53,31.53,0,0,1-3.89,14.64,28.49,28.49,0,0,0,8.47.9,49.66,49.66,0,0,0,16.74-6.37,46.31,46.31,0,0,1-17,31.88c19.93-14.65,21.62-33.28,28.6-49.82a158.41,158.41,0,0,1,89.67-86.08c-37.47,4.49-83.3,38.36-82,23.22.7-7,20.72-73.83,143.76-124.94L875,362.1c-112.78,42-172.06,108.9-163.29,142.67"/>
      <path id="Path_9" data-name="Path 9" class="cls-4" d="M664.63,556.18c5.88,10,0,24-13,31.78s-28.39,6.18-34.17-3.58a14.08,14.08,0,0,1-1.89-4.79,66.14,66.14,0,0,1-7.68,4.79,27,27,0,0,0,2.4,5.48c8.26,13.84,29.88,16.44,47.22,5.77s25.51-30.38,17.24-44.13a26.44,26.44,0,0,0-19.93-12.06c-2.09,2.49-4.28,5.38-6.67,8.37A19.23,19.23,0,0,1,665,556.18"/>
      <path id="Path_10" data-name="Path 10" d="M651.68,587.86c13.05-7.77,18.83-21.91,13-31.68a19,19,0,0,0-16.83-8.37A220.42,220.42,0,0,1,630,567.74a19.91,19.91,0,0,0,7.67,17.63,21.89,21.89,0,0,1-12.75-3.09,12.9,12.9,0,0,1-4.58-6.07l-4.59,3.49a13.53,13.53,0,0,0,1.8,4.78c5.78,10,21.12,11.45,34.17,3.58"/>
      <path id="Path_11" data-name="Path 11" class="cls-3" d="M624.88,582.08a21.89,21.89,0,0,0,12.75,3.09A19.91,19.91,0,0,1,630,567.54,86.53,86.53,0,0,1,620,576a11.94,11.94,0,0,0,4.48,6.07"/>
      <path id="Path_12" data-name="Path 12" class="cls-6" d="M1356.57,396.47S1273,392,1236.41,392.79c-109.59,2.39-221.58,46.33-221.58,46.33a413.89,413.89,0,0,1,148.85-4.69c-29.89,1.7-104.71,21.62-142.07,37a737,737,0,0,0-147.85,82.89,669.57,669.57,0,0,1,472.84-77.22,539.76,539.76,0,0,0,54.9-55.3c42.25-46.32,51.22-74.92,51.22-74.92s-194.38-20.82-335.16.8c-29.89,4.68-63.07,11.86-92.06,19,85.48-13.15,210.52-6.08,331.07,29.89"/>
      <path id="Path_13" data-name="Path 13" class="cls-6" d="M907.93,627.22c158.91-39.36,269,8.37,282.65,58.58l1.5-.8a247.9,247.9,0,0,0,68.24-50.61c39.06-38.36,63.57-69.24,73.23-89.67-162.6-81.4-341.93-32.38-429.8,1.5a421.85,421.85,0,0,1,267,0,464.41,464.41,0,0,0-302.88,45.53c96.84-31.68,158.31-1.79,158.31-1.79-117.46-14.35-205,47.52-235.13,86.07a142.05,142.05,0,0,0-6.47,14.75c27.2-25.6,56.29-46.43,123.34-63.07"/>
      <path id="Path_14" data-name="Path 14" class="cls-6" d="M1450.92,208.07c-124.64,12-225.37,35.67-279,59.78a924.23,924.23,0,0,1,111.29-12.65,630.62,630.62,0,0,1,66.75,3.58C1115.16,295.45,988.83,363.3,958.05,381.53a1017.83,1017.83,0,0,1,195.48-57.89c91.26-18,197.26-22.51,239.91-26.8a360.94,360.94,0,0,0,84.78-133s-106,8.56-226.26,30.88a1125.88,1125.88,0,0,0-222.08,62.67c230.44-72.23,420.84-49.81,420.84-49.81"/>
      <path id="Path_15" data-name="Path 15" class="cls-6" d="M818.46,691s39.85-29.89,108-19.23c100.63,16.14,97.74,79.7,97.74,79.7a161,161,0,0,0,68.15-59.28,164,164,0,0,0-79.7-36.16c-133.8-23.62-194.08,35.17-194.08,35.17"/>
      <path id="Path_16" data-name="Path 16" class="cls-6" d="M501.94,665.28c-10,3-31.39,6.07-21.22-9.27,0,0,12.95-7,29.88-15.94A56.25,56.25,0,0,0,546,652.33l-44.43,12.95Zm41.74-47.43a155.72,155.72,0,0,1-76.61.7c-20.83,14.35-95.85,46.53-143.57,127.33,2.49,27.4,5.28,62.37,16.54,81.6,45.83,72.43,126,45.73,126,45.73s-121.75-54.1,8.37-132.81c41.54-25.21,156.62-44,225.16-22,5.88,2.09,13,7.27,12.56,8.57-7.08,35-35.87,132.71-83.59,160.5-26.4-38.55,43.23-127-27.8-130.41a92.58,92.58,0,0,1,10,64.16c-3.39,16.14-14.35,59.28,5.28,103.91,0,0,108-64.56,140.08-213.61a168,168,0,0,1,13.25-38.35c-138.69,54.7-225.76-55.3-225.76-55.3"/>
      <path id="Path_17" data-name="Path 17" d="M480.71,656c-10,15.34,11.36,12.26,21.33,9.27l44.33-12.95A56.23,56.23,0,0,1,511,640.07C493.67,649,481.11,656,481.11,656"/>
    </g>
    <rect class="cls-7" x="-0.5" y="-0.5" width="1920" height="1080"/>
  </g>
  <text class="cls-8" transform="translate(516.26 118.09)"><tspan class="cls-9">Philadelphia Eagles #1 draft picks 2005-2019</tspan></text>
  <g id="left-arrow">
    <rect id="Rectangle_3" data-name="Rectangle 3" class="cls-4" x="64.67" y="771.06" width="14.8" height="50.46" rx="7.4" transform="translate(-541.95 284.19) rotate(-45)"/>
    <rect id="Rectangle_4" data-name="Rectangle 4" class="cls-4" x="46.84" y="763.67" width="50.46" height="14.8" rx="7.4" transform="translate(-524.12 276.8) rotate(-45)"/>
    <rect id="Rectangle_2" data-name="Rectangle 2" class="cls-4" x="52.07" y="776.28" width="64.25" height="14.8" rx="7.4"/>
  </g>
  <g id="right-arrow">
    <rect id="Rectangle_2-2" data-name="Rectangle 2" class="cls-4" x="1803.07" y="776.28" width="64.25" height="14.8" rx="7.4"/>
    <rect id="Rectangle_3-2" data-name="Rectangle 3" class="cls-4" x="1839.91" y="745.84" width="14.8" height="50.46" rx="7.4" transform="translate(-4.17 1532.09) rotate(-45)"/>
    <rect id="Rectangle_4-2" data-name="Rectangle 4" class="cls-4" x="1822.08" y="788.88" width="50.46" height="14.8" rx="7.4" transform="translate(-22 1539.47) rotate(-45)"/>
  </g>
</svg>
